<?xml version="1.0" standalone="no"?>
<!DOCTYPE svg PUBLIC "-//W3C//DTD SVG 20010904//EN"
 "http://www.w3.org/TR/2001/REC-SVG-20010904/DTD/svg10.dtd">
<svg version="1.0" xmlns="http://www.w3.org/2000/svg"
 width="150.000000pt" height="150.000000pt" viewBox="0 0 150.000000 150.000000"
 preserveAspectRatio="xMidYMid meet">
<metadata>
Created by potrace 1.11, written by Peter Selinger 2001-2013
</metadata>
<g transform="translate(0.000000,150.000000) scale(0.100000,-0.100000)"
fill="#000000" stroke="none">
<path d="M260 1321 c0 -5 20 -18 45 -30 50 -23 59 -35 20 -25 -38 9 -30 -5 13
-23 45 -19 92 -51 92 -63 0 -5 -14 -17 -30 -25 -25 -13 -29 -19 -21 -34 7 -13
18 -17 36 -14 14 3 25 1 25 -6 0 -5 -7 -8 -15 -5 -8 4 -15 1 -15 -4 0 -10 -59
-20 -147 -25 -79 -5 -54 -14 49 -19 57 -3 110 -9 120 -12 9 -5 26 -39 39 -82
24 -79 48 -106 75 -83 17 14 18 41 2 57 -9 9 -8 12 5 12 9 0 17 -6 17 -14 0
-18 60 -86 76 -86 6 0 25 -7 40 -15 16 -8 36 -15 45 -15 8 0 20 -5 26 -11 8
-8 17 -8 31 0 10 6 22 8 25 5 3 -4 18 3 33 15 15 11 35 21 45 21 10 0 20 4 23
9 3 4 17 6 31 4 43 -9 75 5 87 37 5 17 13 28 17 25 4 -2 18 10 31 27 18 25 21
35 12 49 -9 14 -9 25 0 43 9 20 7 34 -6 69 -13 34 -14 51 -6 71 14 37 13 59
-4 81 -12 17 -17 18 -57 6 -24 -7 -75 -27 -114 -43 -63 -28 -76 -30 -145 -25
-41 3 -111 18 -155 32 -105 35 -215 64 -240 65 -12 0 -38 9 -60 20 -45 23 -45
23 -45 11z m225 -78 c33 -8 95 -25 138 -39 119 -37 208 -34 312 11 45 19 92
36 106 37 23 3 24 1 25 -67 1 -38 5 -85 9 -103 4 -19 2 -44 -5 -62 -9 -23 -10
-33 -1 -44 9 -11 6 -18 -17 -35 -17 -11 -33 -33 -36 -47 -6 -22 -11 -25 -31
-20 -15 4 -25 2 -25 -4 0 -6 -7 -6 -19 2 -15 9 -22 8 -36 -5 -9 -9 -24 -17
-33 -17 -10 0 -26 -6 -37 -13 -45 -31 -75 -28 -172 15 -41 19 -80 62 -75 84 3
15 -26 26 -49 19 -21 -7 -25 -20 -9 -30 12 -7 14 -45 3 -45 -21 1 -33 20 -43
68 -7 28 -16 54 -21 58 -5 3 -9 14 -9 24 0 15 -10 20 -47 26 l-48 8 43 8 c33
7 42 14 42 30 0 11 -8 22 -20 25 -25 7 -25 11 2 33 l23 18 -20 22 c-11 12 -32
29 -48 36 -15 8 -25 19 -22 24 6 10 14 9 120 -17z"/>
<path d="M520 1065 c0 -101 18 -115 22 -18 l3 68 40 -67 c22 -37 46 -68 53
-68 9 0 12 24 12 85 0 50 -4 85 -10 85 -6 0 -10 -29 -10 -67 l0 -68 -41 68
c-57 92 -69 89 -69 -18z"/>
<path d="M696 1085 c-20 -21 -21 -69 0 -89 18 -18 84 -22 84 -5 0 7 -9 9 -22
6 -26 -7 -58 8 -58 28 0 9 14 15 45 17 44 3 44 3 32 28 -15 30 -58 38 -81 15z
m62 -18 c3 -13 -3 -17 -27 -17 -33 0 -39 8 -19 28 17 17 42 11 46 -11z"/>
<path d="M810 1038 c0 -45 3 -58 15 -58 11 0 15 12 15 45 0 31 5 47 15 51 25
10 17 21 -15 21 -30 0 -30 -1 -30 -59z"/>
<path d="M901 1086 c-16 -20 -17 -72 -1 -91 16 -20 64 -19 84 1 19 18 21 75 4
92 -17 17 -73 15 -87 -2z m72 -17 c13 -21 2 -65 -19 -73 -23 -9 -44 12 -44 43
0 47 40 66 63 30z"/>
<path d="M623 753 c-4 -11 1 -22 15 -31 28 -18 28 -29 0 -35 -21 -4 -20 -4 3
-6 34 -1 43 22 18 45 -23 20 -25 39 -4 30 8 -3 15 -1 15 4 0 17 -40 11 -47 -7z"/>
<path d="M704 730 c1 -44 2 -45 34 -46 32 -1 32 0 32 45 0 49 -16 47 -22 -4
-5 -46 -32 -39 -39 10 l-7 40 2 -45z"/>
<path d="M1243 749 c-23 -9 -63 -21 -90 -24 -51 -8 -139 -28 -293 -69 -170
-45 -346 -33 -512 37 -36 15 -38 15 -48 -3 -5 -10 -10 -40 -10 -67 -1 -107 -6
-189 -14 -201 -9 -15 39 -72 60 -72 6 0 15 -11 18 -25 4 -15 15 -26 29 -29 63
-13 87 -15 92 -6 3 5 18 2 33 -6 15 -7 34 -14 43 -14 9 0 27 -8 40 -18 35 -26
132 -17 239 21 25 9 53 17 63 17 10 0 22 12 28 27 11 28 11 28 20 6 4 -13 13
-23 19 -23 5 0 10 -9 10 -20 0 -10 9 -24 20 -30 11 -6 20 -17 20 -25 0 -8 4
-15 9 -15 13 0 22 15 15 23 -3 3 -7 26 -9 50 -2 38 0 46 18 51 17 4 19 10 14
40 -4 27 -2 36 9 36 8 0 14 4 14 10 0 5 -7 7 -15 4 -19 -8 -19 6 -1 32 14 19
57 23 259 24 20 0 37 5 37 10 0 6 -29 10 -67 10 -38 1 -97 7 -133 15 -35 7
-69 11 -74 8 -5 -3 -6 0 -4 8 3 8 19 14 39 14 42 0 51 26 14 43 -41 19 -32 47
23 70 26 11 59 23 75 27 40 10 33 25 -10 18 -43 -7 -39 12 5 22 28 6 69 32 61
39 -2 2 -23 -5 -46 -15z m-799 -191 c8 -13 8 -23 0 -35 -8 -13 -7 -24 5 -44
14 -25 14 -29 -3 -48 -13 -14 -31 -21 -58 -21 l-38 0 0 86 0 85 41 -3 c27 -2
46 -9 53 -20z m66 14 c0 -13 -12 -22 -22 -16 -10 6 -1 24 13 24 5 0 9 -4 9 -8z
m112 -56 c4 -6 8 -32 8 -57 l0 -47 -42 2 c-41 1 -43 3 -43 31 0 25 5 32 33 40
38 11 37 30 -1 30 -28 -1 -36 10 -14 18 16 7 50 -3 59 -17z m146 -55 c2 -31
-1 -51 -7 -51 -6 0 -11 20 -11 44 0 26 -6 48 -15 56 -25 20 -45 -5 -45 -56 0
-24 -4 -44 -10 -44 -6 0 -10 27 -10 61 0 47 3 60 13 56 8 -3 20 -1 28 4 28 17
54 -14 57 -70z m106 73 c9 -3 16 -10 16 -15 0 -4 -6 -6 -14 -3 -21 8 -56 -14
-56 -36 0 -36 12 -50 41 -50 16 0 29 -4 29 -10 0 -16 -57 -12 -74 6 -17 16
-21 61 -8 80 5 8 40 32 49 34 1 0 8 -3 17 -6z m131 -19 c30 -29 32 -58 5 -85
-24 -24 -57 -26 -82 -3 -32 28 -19 91 22 106 26 9 30 8 55 -18z m-495 -45 c0
-78 -17 -78 -22 0 -2 43 1 60 10 60 8 0 12 -19 12 -60z"/>
<path d="M376 563 c-3 -4 -6 -17 -6 -30 0 -21 4 -24 28 -21 19 2 27 9 27 22 0
18 -37 40 -49 29z"/>
<path d="M370 460 c0 -28 3 -31 28 -28 21 2 27 8 27 28 0 20 -6 26 -27 28 -25
3 -28 0 -28 -28z"/>
<path d="M567 463 c-16 -15 -6 -34 15 -31 29 4 38 38 10 38 -10 0 -22 -3 -25
-7z"/>
<path d="M940 499 c-7 -11 -9 -32 -6 -46 5 -19 12 -24 34 -21 21 2 28 9 30 31
6 51 -37 77 -58 36z"/>
<path d="M1230 420 c0 -5 5 -10 10 -10 6 0 10 5 10 10 0 6 -4 10 -10 10 -5 0
-10 -4 -10 -10z"/>
<path d="M1100 400 c0 -5 5 -10 10 -10 6 0 10 5 10 10 0 6 -4 10 -10 10 -5 0
-10 -4 -10 -10z"/>
<path d="M1125 370 c-3 -5 1 -10 9 -10 9 0 16 5 16 10 0 6 -4 10 -9 10 -6 0
-13 -4 -16 -10z"/>
<path d="M1120 311 c0 -5 -10 -11 -22 -13 -28 -4 -38 -45 -14 -54 9 -3 16 -12
16 -20 0 -8 4 -14 8 -14 4 0 9 19 9 42 1 24 7 44 13 46 13 5 13 22 0 22 -5 0
-10 -4 -10 -9z"/>
<path d="M925 280 c-4 -6 -3 -16 3 -22 6 -6 12 -6 17 2 4 6 3 16 -3 22 -6 6
-12 6 -17 -2z"/>
</g>
</svg>
